<?xml version="1.0" encoding="UTF-8" standalone="no"?>
<!DOCTYPE svg PUBLIC "-//W3C//DTD SVG 20010904//EN"
              "http://www.w3.org/TR/2001/REC-SVG-20010904/DTD/svg10.dtd">

<svg xmlns="http://www.w3.org/2000/svg"
     width="13.4222in" height="17.7778in"
     viewBox="0 0 1208 1600">
  <path id="Imported Path"
        fill="none" stroke="black" stroke-width="1"
        d="M 518.96,59.62
           C 458.56,63.25 399.92,76.88 350.65,98.75
             288.24,126.37 232.35,170.88 191.33,225.62
             148.06,283.25 123.18,350.00 114.80,430.00
             112.80,450.00 112.80,507.62 114.80,525.62
             122.93,596.25 143.68,654.12 180.45,709.12
             228.97,781.75 301.00,839.88 392.79,880.38
             422.93,893.75 432.68,897.12 621.51,960.62
             708.67,989.88 728.18,997.12 763.19,1013.38
             803.83,1032.12 831.84,1050.12 853.60,1071.88
             879.61,1097.62 892.87,1121.88 900.62,1157.88
             904.37,1175.12 904.75,1218.25 901.25,1235.50
             894.25,1269.75 879.61,1298.38 855.98,1323.38
             809.46,1372.88 745.56,1397.50 664.02,1397.50
             573.11,1397.50 493.70,1365.62 416.42,1298.00
             351.52,1241.38 289.12,1153.12 240.10,1048.88
             227.84,1022.75 210.21,981.75 201.96,959.62
             201.96,959.62 195.96,943.75 195.96,943.75
             195.96,943.75 134.43,943.75 134.43,943.75
             134.43,943.75 72.91,943.75 72.91,943.75
             72.91,943.75 70.15,946.62 70.15,946.62
             70.15,946.62 67.40,949.62 67.40,949.62
             67.40,949.62 76.91,1132.00 76.91,1132.00
             94.91,1480.88 96.29,1506.88 96.92,1508.38
             97.29,1509.62 109.30,1510.00 151.19,1510.00
             180.70,1510.00 205.21,1509.50 205.59,1509.00
             205.84,1508.50 206.84,1503.25 207.59,1497.50
             211.59,1466.75 224.97,1437.00 239.72,1425.25
             250.60,1416.75 254.36,1415.62 270.74,1415.75
             293.37,1415.88 308.38,1420.50 375.78,1448.12
             454.69,1480.38 536.47,1503.88 600.62,1512.62
             624.88,1515.88 686.16,1517.25 713.67,1515.12
             829.34,1506.00 923.01,1465.50 999.66,1391.25
             1077.07,1316.25 1118.84,1224.12 1128.09,1107.38
             1129.97,1084.25 1128.84,1026.38 1126.09,1003.12
             1114.34,901.88 1077.32,820.87 1012.29,753.87
             959.65,699.62 890.49,656.12 802.58,621.75
             776.07,611.37 764.07,607.38 644.02,569.38
             520.22,530.12 512.34,527.50 490.95,518.50
             446.93,500.12 413.67,478.62 385.78,450.62
             358.27,423.12 342.64,394.75 337.64,363.50
             335.14,348.37 336.64,319.87 340.64,304.63
             346.89,280.25 360.02,258.00 378.66,239.38
             411.42,207.00 452.69,187.75 508.34,179.25
             520.34,177.37 530.34,176.88 558.98,176.88
             590.62,176.88 596.37,177.25 610.63,179.75
             707.42,197.13 786.95,253.75 860.73,357.87
             886.12,393.50 905.62,426.62 931.76,478.12
             931.76,478.12 951.39,516.88 951.39,516.88
             951.39,516.88 1000.04,517.25 1000.04,517.25
             1000.04,517.25 1048.68,517.50 1048.68,517.50
             1048.68,517.50 1052.19,513.87 1052.19,513.87
             1052.19,513.87 1055.69,510.25 1055.69,510.25
             1055.69,510.25 1046.06,327.25 1046.06,327.25
             1040.81,226.75 1035.55,126.37 1034.43,104.38
             1034.43,104.38 1032.30,64.38 1032.30,64.38
             1032.30,64.38 984.78,64.75 984.78,64.75
             958.65,65.00 936.89,65.62 936.51,66.00
             936.14,66.50 934.76,70.75 933.51,75.62
             928.01,97.25 916.88,117.75 905.75,127.37
             892.49,138.62 879.74,141.75 860.73,138.25
             853.98,137.00 845.98,135.50 842.85,135.00
             839.72,134.38 826.84,129.25 814.09,123.38
             738.06,88.62 656.40,65.75 588.37,60.00
             574.49,58.87 535.10,58.62 518.96,59.62 Z" />
</svg>
